# xmcd CD database file
#
# Track frame offsets:
#	150
#	15872
#	33542
#	51252
#	57905
#	71640
#	83570
#	99570
#	103887
#	126300
#	146737
#
# Disc length: 2050 seconds
#
# Revision: 0
# Processed by: cddbd v1.5PL3 Copyright (c) Steve Scherf et al.
# Submitted via: CDex 1.51
#
DISCID=9608000b
DTITLE=Humming Toad - Love under the lily pad
DYEAR=1900
DGENRE=Rock
TTITLE0=Angel Baby
TTITLE1=My lady penelope
TTITLE2=Ohio super express
TTITLE3=Happy time
TTITLE4=Mirror
TTITLE5=Brand new love
TTITLE6=Love wonderland
TTITLE7=My harmonica's dead
TTITLE8=Love under the lily pad
TTITLE9=Full moon
TTITLE10=The theme of Humming Toad
EXTD=
EXTT0=
EXTT1=
EXTT2=
EXTT3=
EXTT4=
EXTT5=
EXTT6=
EXTT7=
EXTT8=
EXTT9=
EXTT10=
PLAYORDER=
